<svg xmlns="http://www.w3.org/2000/svg" xmlns:xlink="http://www.w3.org/1999/xlink" width="119.275mm" height="45.434mm" viewBox="204.251404 -306.425293 119.274567 45.433685">
    <path transform="matrix(1,0,0,-1,0,0)" style="stroke:none;fill:#fff;fill-rule:evenodd" d="M277.202515,267.345215C276.011108,265.488525,275.585022,263.119293,276.311829,262.392487C276.808777,261.895538,278.019958,261.917145,278.783203,262.436584C279.609711,262.999115,280.026489,263.630249,280.142456,264.495026C280.24115,265.230713,280.223267,265.262329,279.137665,266.27002C278.066162,267.264618,278.044312,267.302368,278.421997,267.504486C278.636292,267.619171,278.827698,267.686737,278.847412,267.654602C278.867126,267.622498,279.296906,267.133392,279.80249,266.567719C280.583435,265.694,280.721771,265.433868,280.721771,264.839081C280.721771,264.042938,280.364746,263.238708,279.687347,262.509033C279.022339,261.792694,278.354248,261.492828,277.373596,261.47049C275.677704,261.431854,275.071686,262.385925,275.432678,264.526093C275.681274,266.000122,276.665161,268.080017,277.236267,268.338867C277.830475,268.608215,277.820282,268.307922,277.202515,267.345215z"/>
    <path transform="matrix(1,0,0,-1,0,0)" style="stroke:none;fill:#fff;fill-rule:evenodd" d="M282.903198,268.081329C282.955811,267.717499,283.05014,266.407745,283.112854,265.170746C283.175537,263.933777,283.287476,262.921692,283.361542,262.921692C283.435608,262.921692,283.638123,263.298737,283.811523,263.759583C284.41687,265.368042,285.502075,267.592163,285.875366,267.989563C286.933289,269.115601,287.293823,268.13858,287.318481,264.079407C287.335388,261.289856,287.313599,261.072998,287.009857,261.013C286.698181,260.951447,286.688721,261.086426,286.806152,263.919556C286.943604,267.23526,286.816833,268.019836,286.197296,267.688293C285.70343,267.42395,285.105591,266.316101,284.221405,264.026459C283.19281,261.362915,282.962952,261.362579,282.691528,264.02417C282.250214,268.35199,282.237183,268.742798,282.534119,268.742798C282.715454,268.742798,282.839722,268.520081,282.903198,268.081329z"/>
    <path transform="matrix(1,0,0,-1,0,0)" style="stroke:none;fill:#fff;fill-rule:evenodd" d="M293.388916,268.786926C293.345337,268.560486,293.093262,268.44928,292.443054,268.36972C290.873413,268.177612,289.823181,267.401611,289.925354,266.509338C289.986633,265.973969,289.924286,266.002136,292.981445,265.127899C294.227539,264.771545,294.833618,264.279022,294.833618,263.62262C294.833618,262.391388,293.224854,261.202301,291.326111,261.030121C290.420959,260.948059,290.236725,260.979889,290.138672,261.235413C290.068359,261.418732,290.144653,261.654053,290.332489,261.832886C290.56189,262.05127,290.663574,262.070648,290.724121,261.907379C290.828918,261.624756,292.184875,261.617798,292.84082,261.896576C294.142853,262.44989,294.689819,263.576599,293.971832,264.226379C293.78891,264.391907,292.798706,264.747284,291.771362,265.016083C289.948669,265.493011,289.188873,265.899445,289.188873,266.397552C289.188873,267.480774,291.378174,269.043945,292.950256,269.083191C293.332977,269.092712,293.43454,269.024139,293.388916,268.786926z"/>
    <path transform="matrix(1,0,0,-1,0,0)" style="stroke:none;fill:#fff;fill-rule:evenodd" d="M273.062927,266.315399C273.07843,264.982452,273.150421,263.276672,273.222839,262.52478C273.308563,261.634644,273.292297,261.157715,273.17627,261.157715C272.843872,261.157715,272.752136,261.769104,272.573792,265.173889C272.392242,268.639191,272.438904,269.334747,272.826843,268.946777C272.963196,268.810455,273.044403,267.905151,273.062927,266.315399z"/>
    <path transform="matrix(1,0,0,-1,0,0)" style="stroke:none;fill:#fff;fill-rule:evenodd" d="M261.980164,268.326477C262.074677,268.118866,262.114105,267.69104,262.06778,267.375732C262.015747,267.021729,262.058685,266.802429,262.179962,266.802429C262.313416,266.802429,262.377258,266.109772,262.379089,264.641571C262.380554,263.453094,262.452606,262.368805,262.539154,262.232086C262.734802,261.923035,262.591339,261.510498,262.288177,261.510498C261.927429,261.510498,261.847168,261.946533,261.847168,263.906311C261.847168,264.951477,261.77478,265.744049,261.679321,265.744049C261.587006,265.744049,261.154572,265.192322,260.718384,264.518005C259.719055,262.973236,258.686646,261.965424,257.728729,261.599579C256.26355,261.040039,255.525558,261.845764,256.107544,263.369629C256.82547,265.249542,259.300049,268.319305,260.514099,268.83609C261.133423,269.099731,261.721069,268.895447,261.980164,268.326477zM259.859985,267.848938C257.87323,266.211304,255.897461,262.506256,256.821777,262.15155C257.788635,261.780548,259.739258,263.369934,261.009277,265.563629C262.295105,267.784607,261.558594,269.249084,259.859985,267.848938z"/>
    <path transform="matrix(1,0,0,-1,0,0)" style="stroke:none;fill:#fff;fill-rule:evenodd" d="M253.527145,268.814056C253.828384,268.603058,253.915558,268.393127,253.875092,267.976166C253.832108,267.533417,253.645462,267.30246,252.960953,266.845001C252.487885,266.528839,251.654404,266.143402,251.10878,265.988464C249.791626,265.614441,249.630051,265.43042,249.613495,264.285339C249.59668,263.12207,249.974304,262.463226,250.779129,262.251587C251.991928,261.932648,253.051468,262.453461,253.921524,263.796204C254.591492,264.830109,254.799896,264.85788,254.282806,263.84433C253.479004,262.268738,252.504578,261.510498,251.283554,261.510498C249.706192,261.510498,248.971909,262.306458,248.970795,264.017548C248.968826,267.010437,251.818802,270.01062,253.527145,268.814056zM251.118652,267.956726C250.441025,267.344513,249.877228,266.365753,250.08342,266.159546C250.232285,266.010681,251.7164,266.547913,252.621384,267.078278C253.274567,267.46106,253.392059,267.611511,253.34639,268.006653C253.298187,268.423706,253.206512,268.484436,252.553329,268.531921C251.916412,268.578217,251.718948,268.499054,251.118652,267.956726z"/>
    <path transform="matrix(1,0,0,-1,0,0)" style="stroke:none;fill:#fff;fill-rule:evenodd" d="M247.166901,268.821014C247.541946,268.558319,247.684006,268.044678,247.447128,267.8078C247.385635,267.746307,247.13678,267.852142,246.894135,268.042999C246.651505,268.233856,246.313156,268.390015,246.142258,268.390015C245.655624,268.390015,244.812454,267.293182,244.015533,265.623474C243.295547,264.11496,243.287018,264.074219,243.405685,262.713806C243.507111,261.551025,243.484406,261.334106,243.261215,261.334106C242.867081,261.334106,242.82782,261.648254,242.76532,265.30304C242.715958,268.190094,242.744675,268.654602,242.97261,268.654602C243.18428,268.654602,243.254837,268.301819,243.325394,266.890625L243.413605,265.126648L244.001892,266.329895C244.659714,267.675354,245.907166,269.095612,246.431076,269.095612C246.620163,269.095612,246.951279,268.972046,247.166901,268.821014z"/>
    <path transform="matrix(1,0,0,-1,0,0)" style="stroke:none;fill:#fff;fill-rule:evenodd" d="M267.491913,269.360199C267.491913,268.341492,267.535767,267.508026,267.589417,267.508026C267.890564,267.508026,270.277344,268.106323,270.553711,268.251068C270.77124,268.365021,270.943634,268.360413,271.06662,268.237427C271.425049,267.879028,270.8526,267.557831,269.47467,267.344208C267.340027,267.013306,267.491394,267.146729,267.495483,265.599854C267.497437,264.854492,267.575134,263.768372,267.668091,263.186279C267.761108,262.604156,267.858765,261.972168,267.885071,261.78186C267.946991,261.334045,267.401123,261.209442,267.238037,261.634125C267.171021,261.808685,267.069427,263.042969,267.012329,264.376953C266.933289,266.223389,266.8526,266.802429,266.674316,266.802429C266.545471,266.802429,265.883179,266.70694,265.202576,266.59021C264.271362,266.430542,263.914917,266.428131,263.762573,266.580444C263.610229,266.732788,263.664703,266.803711,263.982544,266.866882C264.214874,266.913086,264.960632,267.056396,265.63974,267.185364L266.874512,267.41983L266.92157,269.095612C266.97229,270.902832,267.029114,271.212372,267.309998,271.212372C267.423401,271.212372,267.491913,270.514954,267.491913,269.360199z"/>
    <path transform="matrix(1,0,0,-1,0,0)" style="stroke:none;fill:#fff;fill-rule:evenodd" d="M239.011673,271.132202C239.328674,270.815216,239.444641,270.508087,239.444641,269.985626C239.444641,269.59314,239.365265,269.272003,239.26825,269.272003C239.171234,269.272003,239.091843,269.452789,239.091843,269.673767C239.091843,270.262634,238.605209,270.859589,238.125183,270.859589C236.766068,270.859589,235.044907,267.368805,235.037582,264.597473C235.029144,261.40625,238.129669,260.801208,241.067169,263.420868C241.82724,264.098663,241.922913,264.147888,241.607086,263.698486C241.102859,262.981049,239.965637,261.9617,239.23468,261.57196C238.404694,261.129456,236.711227,261.143616,235.935135,261.599609C234.81369,262.258453,234.592834,262.749634,234.60083,264.566895C234.606537,265.863342,234.70488,266.465607,235.095444,267.596222C235.89238,269.903168,237.216324,271.562347,238.261978,271.564514C238.436172,271.56488,238.773529,271.370331,239.011673,271.132202z"/>
    <path transform="matrix(1,0,0,-1,0,0)" style="stroke:none;fill:#fff;fill-rule:evenodd" d="M272.637665,271.802429C273.051147,271.428223,273.048035,271.212372,272.629059,271.212372C272.231812,271.212372,271.825928,271.652374,271.985291,271.910248C272.141174,272.162506,272.261841,272.142578,272.637665,271.802429z"/>
    <path transform="matrix(1,0,0,-1,0,0)" style="stroke:none;fill:#fff;fill-rule:evenodd" d="M286.190125,290.61615C286.999115,289.807129,287.096466,289.381378,286.472412,289.381378C285.67099,289.381378,283.384552,286.466492,281.276489,282.757294C280.220398,280.89917,280.129761,280.479248,280.843323,280.750549C281.794586,281.112244,286.347229,284.706757,287.496338,286.003418C287.681152,286.211975,287.906128,286.382599,287.996246,286.382599C288.60022,286.382599,283.397125,281.398132,281.291046,279.959106C280.632202,279.508911,279.801697,279.093292,279.445435,279.035492C278.886383,278.944763,278.724243,279.003906,278.260376,279.467773C277.561646,280.166504,277.561646,280.83725,278.260559,282.314514C279.436401,284.800171,282.301392,289.020599,283.893738,290.612946C284.812469,291.531677,285.273926,291.532349,286.190125,290.61615z"/>
    <path transform="matrix(1,0,0,-1,0,0)" style="stroke:none;fill:#fff;fill-rule:evenodd" d="M316.263428,291.124939C316.930511,290.386536,317.034851,290.086975,316.624878,290.086975C316.255188,290.086975,315.26416,289.172394,314.242004,287.887787C313.177368,286.549835,311.217346,283.699097,311.303131,283.613312C311.336975,283.579468,312.030884,284.237244,312.845123,285.075043C315.489075,287.795441,319.782898,291.161621,321.393799,291.776825L322.19104,292.081299L322.800568,291.490509C323.135803,291.165588,323.410095,290.784515,323.410095,290.643677C323.410095,290.502808,322.737671,289.690063,321.915833,288.837524C320.057648,286.909973,318.76358,284.962036,319.173096,284.708954C319.42218,284.554993,321.032837,285.232117,322.284821,286.01709C322.914917,286.41217,323.473419,286.735413,323.52597,286.735413C323.578491,286.735413,323.196899,286.379822,322.677887,285.945251C321.548889,284.999817,319.695984,283.990479,318.775574,283.819489C318.164124,283.705902,318.059082,283.749939,317.4823,284.361481C316.927155,284.950104,316.867859,285.100403,316.969788,285.660767C317.087006,286.305206,317.93692,287.981812,318.431641,288.544556C319.029541,289.224701,318.407166,289.019257,316.935333,288.050629C313.932434,286.074402,309.164063,280.816711,308.821594,279.104248C308.688446,278.438629,308.538086,278.386261,307.992462,278.815491C307.334595,279.332947,306.973389,280.105408,307.114899,280.692261C307.527039,282.40155,310.607635,287.349609,313.127563,290.349854C314.69696,292.218384,315.169952,292.335266,316.263428,291.124939z"/>
    <path transform="matrix(1,0,0,-1,0,0)" style="stroke:none;fill:#fff;fill-rule:evenodd" d="M308.784485,291.625153C310.131775,290.717224,310.005005,289.886139,308.250702,288.125275C306.218628,286.085632,303.143677,284.298126,300.83374,283.813751C299.58197,283.551239,299.423981,283.413757,298.770142,282.018097C298.278015,280.967651,298.345245,280.440186,298.991882,280.277893C300.335297,279.940704,303.199768,281.410706,307.666565,284.729614C308.758026,285.540588,309.651031,286.128052,309.651031,286.035034C309.651031,285.795593,306.760132,283.340607,304.930298,282.026093C302.290344,280.129669,299.73407,278.973877,298.179626,278.973877C297.378479,278.973877,296.126526,279.827454,295.961121,280.486389C295.332275,282.992035,298.75354,287.766113,302.992706,290.29834C304.335266,291.100311,306.814728,292.021423,307.640472,292.024994C307.941406,292.026276,308.456238,291.846375,308.784485,291.625153zM307.029968,290.432831C305.283936,289.481079,303.848511,288.361938,302.148804,286.627075C300.786377,285.236542,300.14209,284.366882,300.332947,284.176025C300.527039,283.981934,302.011047,284.667297,303.371826,285.579437C306.319977,287.555634,309.669617,291.155487,308.548553,291.142883C308.427277,291.14151,307.743927,290.821991,307.029968,290.432831z"/>
    <path transform="matrix(1,0,0,-1,0,0)" style="stroke:none;fill:#fff;fill-rule:evenodd" d="M249.587524,292.027344C249.527573,291.930328,249.399124,291.850952,249.302109,291.850952C249.205093,291.850952,249.174774,291.930328,249.234726,292.027344C249.294693,292.124359,249.423126,292.203735,249.520157,292.203735C249.617172,292.203735,249.647491,292.124359,249.587524,292.027344z"/>
    <path transform="matrix(1,0,0,-1,0,0)" style="stroke:none;fill:#fff;fill-rule:evenodd" d="M300.62854,292.033752C299.696075,290.461975,297.033264,287.35083,294.039795,284.335693C290.601044,280.871948,288.354492,278.973877,287.693604,278.973877C287.447266,278.973877,287.093262,279.195648,286.818726,279.521912C286.31543,280.120056,286.316498,280.30481,286.835388,282.391296C287.548584,285.259155,290.054993,290.096497,291.543701,291.478302C291.957184,291.862122,292.045898,291.879395,292.54425,291.672974C293.074158,291.453491,293.951599,290.49939,293.951599,290.142731C293.951599,290.046204,293.752197,289.876343,293.508484,289.765289C293.02771,289.546234,291.518127,287.335754,290.596008,285.50061C289.970825,284.256409,288.963348,281.433777,289.096802,281.300354C289.432068,280.965057,295.278381,286.587799,300.112823,291.89505C300.532593,292.355896,300.913696,292.732941,300.959717,292.732941C301.005737,292.732941,300.856689,292.418304,300.62854,292.033752z"/>
    <path transform="matrix(1,0,0,-1,0,0)" style="stroke:none;fill:#fff;fill-rule:evenodd" d="M289.497559,295.684875C289.812866,295.381531,290.070862,295.070557,290.070862,294.993866C290.070862,294.917175,289.812866,294.74649,289.497559,294.614563C289.182251,294.482635,288.447998,293.92395,287.865906,293.373077C287.283752,292.822205,286.690063,292.394043,286.546539,292.421631C286.403015,292.449188,286.210938,292.684052,286.11969,292.943481C285.984619,293.327515,286.059204,293.629303,286.520691,294.566742C287.489105,296.533844,288.299011,296.838074,289.497559,295.684875z"/>
    <path transform="matrix(1,0,0,-1,0,0)" style="stroke:none;fill:#fff;fill-rule:evenodd" d="M230.100189,306.130432C231.900543,305.907471,232.900452,305.627167,234.144958,304.996521C237.094009,303.502136,238.582687,300.297119,238.042801,296.604828C237.394272,292.169495,234.622986,287.285309,230.101395,282.608704C225.257507,277.598755,219.976334,274.240906,214.816437,272.89032C209.885559,271.599701,206.160278,272.531891,204.747574,275.409943C203.897125,277.142517,204.141327,279.688232,205.456879,282.804016C209.12059,291.48114,220.638016,300.863403,227.601624,300.843353C229.635651,300.837524,231.153931,299.961975,231.153931,298.794861C231.153931,298.288208,231.14978,298.287964,230.379837,298.742218C227.423706,300.486389,220.804825,297.197571,214.387451,290.795837C211.173065,287.589294,208.978821,284.647827,207.511475,281.578247C206.760635,280.007599,206.103058,277.718201,206.109314,276.696594C206.115265,275.721069,206.675476,274.676819,207.451691,274.194305C208.062744,273.814453,208.327423,273.771149,209.986176,273.779816C212.134247,273.791016,213.063263,274.054993,215.950256,275.474487C224.101059,279.482086,233.07135,288.73056,235.356552,295.482574C236.954819,300.204987,235.72937,303.977325,232.230576,305.105316C229.983185,305.829865,226.050186,305.554962,222.686829,304.438263C217.337921,302.662292,211.356445,298.211029,208.072449,293.562622C206.305542,291.061584,205.714691,288.857147,206.615509,288.126953C206.847549,287.938843,206.990173,287.737732,206.932434,287.679993C206.674133,287.421692,205.597366,287.843384,205.035767,288.422821C204.451202,289.02594,204.429657,289.096741,204.429657,290.414612C204.429657,291.635681,204.499023,291.920807,205.081909,293.094879C208.108887,299.192047,217.852341,305.263245,225.991577,306.12381C227.987061,306.334808,228.444244,306.335541,230.100189,306.130432z"/>
    <path transform="matrix(1,0,0,-1,0,0)" style="stroke:none;fill:#fff;fill-rule:evenodd" d="M277.558899,305.914093C282.630981,304.579865,285.301636,301.581299,284.73349,297.858582C284.192261,294.312073,279.096924,289.987091,272.607483,287.565765C269.314575,286.337128,266.692993,285.83313,263.567078,285.82782C262.017548,285.825165,261.494385,285.768066,261.494385,285.601593C261.494385,285.227783,262.766174,283.385071,264.21933,281.653381C267.156006,278.153748,270.936188,275.43988,274.377655,274.360535C276.327393,273.749023,279.257996,273.772705,280.986359,274.413971C281.665497,274.665924,282.379913,274.928467,282.573944,274.997375C282.767975,275.066315,282.490173,274.835632,281.956543,274.484741C280.748779,273.690613,278.602478,272.998627,276.951172,272.870972C274.58728,272.688263,271.394257,273.569641,268.803284,275.120087C265.891602,276.862396,262.618896,279.919037,260.453369,282.918762C259.84848,283.756683,259.325867,284.44223,259.291992,284.44223C259.059784,284.44223,254.594406,278.030029,253.84465,276.619934C253.246399,275.494781,253.371399,275.222321,254.450974,275.298279C255.247726,275.35434,255.279892,275.340027,255.014877,275.047516C254.672546,274.669647,253.608261,274.331329,253.023956,274.414612C252.434265,274.498688,252.109863,275.187408,252.223724,276.113617C252.415573,277.674225,254.331299,281.484253,256.76059,285.136597L258,287L257.806824,287.752228C257.519287,288.871887,257.567688,289.360138,258.047424,290.178741C258.451233,290.867798,259.156372,291.498138,259.523346,291.498138C259.610321,291.498138,259.643829,291.301147,259.597809,291.060425C259.500732,290.552551,259.672913,289.734161,259.876862,289.734161C259.953735,289.734161,260.685242,290.587494,261.502441,291.630432C265.079956,296.196075,269.133423,300.356873,271.225769,301.611145C272.249451,302.224792,272.432861,302.275604,273.41925,302.218811C274.069946,302.181335,274.68869,302.030304,274.983887,301.836884L275.472198,301.516937L274.706299,301.081879C272.576202,299.871979,268.774841,296.078857,264.041016,290.439758C262.260803,288.319122,261.494385,287.336426,261.494385,287.174561C261.494385,286.952454,263.80426,287.28125,265.816162,287.789764C269.588684,288.743286,274.03656,290.683289,277.193787,292.752258C279.238342,294.092072,281.90097,296.694702,282.487915,297.927094C283.59201,300.24527,282.90094,302.492554,280.639709,303.937134C276.067505,306.858154,268.237183,306.181488,260.218048,302.172363C256.680115,300.403595,253.231659,297.922058,251.106445,295.615662C249.591003,293.971008,248.970139,292.815704,248.970139,291.640411C248.970139,290.915161,249.061737,290.6922,249.608047,290.087463C250.313492,289.306641,250.218964,289.239502,248.886353,289.575073C248.463303,289.68158,247.945709,289.951263,247.736145,290.174316L247.355133,290.579895L244.439194,288.348938C242.835419,287.121948,241.3638,285.991608,241.168945,285.837128C240.82634,285.565521,240.824036,285.523865,241.099152,284.577515C241.51741,283.138733,242.824203,280.648438,243.900818,279.238495C245.06546,277.713226,246.938141,276.262329,248.352737,275.789246L249.411133,275.435303L248.352737,275.533112C245.230377,275.821655,241.381683,279.017853,239.377197,282.986938C239.119965,283.496307,238.862946,283.913025,238.80603,283.913025C238.749115,283.913025,238.065262,283.38147,237.286346,282.731812C235.678848,281.391052,234.532303,280.034058,234.385117,279.298004C234.278137,278.763153,234.082825,278.698669,233.379623,278.966003C232.707428,279.221588,232.340286,279.881897,232.555542,280.44812C232.844406,281.207855,234.116043,282.453796,236.200439,284.019409L238.163589,285.493896L238.086258,287.48175C238.020935,289.161072,238.058746,289.565399,238.329895,290.086975C238.826675,291.042542,241.317688,292.263062,240.940033,291.365845C240.43071,290.155823,240.13063,287.406555,240.484055,287.18811C240.570618,287.134613,241.463638,287.605347,242.468521,288.234192C243.473404,288.863037,244.909912,289.715759,245.660767,290.12915C246.988754,290.860291,247.022385,290.895172,246.895554,291.409943C245.796646,295.869843,252.790344,301.908844,262.552795,304.92984C266.51355,306.155518,268.82135,306.490784,272.783875,306.41626C275.394592,306.367126,276.131226,306.289642,277.558899,305.914093z"/>
</svg>