<svg xmlns="http://www.w3.org/2000/svg" xmlns:xlink="http://www.w3.org/1999/xlink" width="61.309mm" height="88.871mm" viewBox="113.627556 -262.505615 61.309135 88.870667">
    <path transform="matrix(1,0,0,-1,0,0)" style="stroke:none;fill:#fff;fill-rule:evenodd" d="M145.054443,173.642578C150.413269,173.766068,155.638885,175.337967,160.176514,178.191406C164.446243,180.807907,168.050507,184.379532,170.705811,188.625244C172.870056,192.080872,174.252121,195.96814,174.755127,200.014404C175.202179,203.778595,174.827179,207.594788,173.656006,211.199951C172.551666,214.316528,171.092621,217.295532,169.307373,220.078613C167.782318,222.414612,166.167084,224.690247,164.465088,226.900635C162.44519,229.559418,160.415771,232.208344,158.374512,234.850586L157.37207,236.17041C155.444916,238.68277,153.606171,241.261444,151.858887,243.9021L151.670654,244.161865C151.559448,244.336731,151.425751,244.496246,151.272949,244.63623L151.257813,244.636719L151.25,244.616699C151.310532,244.348724,151.416107,244.092896,151.562012,243.860107C152.697327,241.737,153.990875,239.702332,155.431641,237.773438C157.672852,234.718323,159.924316,231.679504,162.194092,228.645996L162.601318,228.08667C164.187958,225.944794,165.667801,223.726074,167.035645,221.438232C168.460358,218.994507,169.671783,216.432556,170.656494,213.780762C171.732773,210.859314,172.293854,207.773254,172.314697,204.659912C172.321442,203.113586,172.188354,201.569733,171.916992,200.047363C171.855408,199.746216,171.768982,199.450714,171.658691,199.163818L171.640869,199.145264C171.641068,199.158203,171.641464,199.171143,171.641357,199.184082L171.650146,199.278076L171.697754,199.640137C171.961838,202.091339,172.005142,204.561066,171.827148,207.02002C171.341064,210.430176,170.337234,213.746063,168.850342,216.853271C167.654037,219.298645,166.268494,221.646729,164.706299,223.876221C162.848145,226.528046,160.912415,229.124359,158.901367,231.662109C157.895325,232.951202,156.885071,234.238068,155.871582,235.521484L155.126465,236.477539C152.971283,239.201843,150.934723,242.017639,149.022217,244.91748C148.104401,246.373535,147.208282,247.843811,146.334717,249.326904L146.235352,249.483398C146.179291,249.584656,146.109192,249.67746,146.026855,249.758789L146.008301,249.760986L145.997803,249.745361C145.992844,249.722595,145.991547,249.699463,145.989746,249.67627C146.118042,249.295654,146.286697,248.929871,146.49292,248.585205C147.860077,246.007172,149.347382,243.494446,150.949707,241.055664C153.002441,238.070648,155.165131,235.163086,157.433594,232.338623L159.359863,229.898682C161.324783,227.452057,163.182358,224.921082,164.927246,222.312988C166.411697,220.095367,167.624756,217.70755,168.540283,215.200928C170.769653,208.8909,170.79332,202.011475,168.607422,195.686279L168.502197,195.699951C166.381409,195.893433,164.25415,196.006165,162.124756,196.037842C159.310822,196.125214,156.494507,196.120178,153.680908,196.022705L153.645752,196.016113L153.629089,195.991821L153.644043,195.985596C153.845642,195.944519,154.049667,195.916473,154.254883,195.901855L155.364014,195.784668C157.227859,195.609589,159.083405,195.35437,160.925293,195.019775C161.565063,194.919067,162.18988,194.739258,162.785156,194.484131C162.949707,194.420105,163.086548,194.300018,163.170654,194.144775C163.249878,193.929932,163.181732,193.688507,163.001221,193.547607C162.662918,193.28009,162.278625,193.076843,161.867188,192.94751C160.467621,192.484985,159.04068,192.110077,157.594482,191.824951C155.292831,191.33963,152.986282,190.87735,150.675293,190.438232L149.666992,190.22876C147.978104,189.899384,146.309387,189.473526,144.669189,188.953369C144.039215,188.754227,143.437256,188.475479,142.87793,188.123779C142.59848,187.948914,142.364471,187.710281,142.195068,187.42749C142.085419,187.194183,142.121704,186.918503,142.287598,186.721191C142.702789,186.207443,143.241547,185.807114,143.853271,185.557861C145.158691,184.985764,146.516968,184.542816,147.908691,184.235352C151.114273,183.490814,154.367065,182.966888,157.644287,182.667236C157.786362,182.656738,157.928833,182.652512,158.071289,182.654541C153.510925,180.014572,148.226746,178.900681,142.98877,179.475098C134.938873,180.481552,127.779572,185.081314,123.518311,191.984619C121.884529,194.626282,120.743622,197.542297,120.150879,200.591309C119.831543,203.126801,119.743637,205.685638,119.888184,208.237061C120.201118,211.157257,120.916733,214.020142,122.014648,216.744141C123.13414,219.510437,124.518066,222.162079,126.147217,224.662354C127.31633,226.454529,128.556961,228.199188,129.865967,229.891846C131.125061,231.552246,132.384827,233.200378,133.656494,234.85083L134.588867,236.073975C136.243561,238.197601,137.798859,240.396545,139.25,242.664063C141.285034,245.848633,142.827301,249.322449,143.824463,252.967773C144.202515,254.449677,144.463226,255.959076,144.604248,257.481934C144.77359,258.852692,144.833679,260.234741,144.783936,261.61499C144.766937,261.915955,144.710052,262.213257,144.614014,262.499023L144.596191,262.505615L144.57959,262.47876C144.523575,262.159271,144.49321,261.835815,144.48877,261.511475L144.434082,260.431641C144.319,257.100952,143.53096,253.827484,142.117676,250.809326C140.578827,247.380951,138.62822,244.152771,136.308838,241.196045C134.417236,238.762085,132.460327,236.378876,130.440918,234.049805L128.550537,231.845703C127.000504,230.078613,125.512161,228.258606,124.087891,226.388672C123.260979,225.24823,122.474792,224.078918,121.730713,222.882813L121.576416,222.657715C121.494812,222.512939,121.386917,222.384583,121.258545,222.279053L121.22583,222.292358C121.227776,222.310516,121.22963,222.328522,121.231445,222.34668L121.242432,222.395752C121.403931,222.870331,121.598938,223.332825,121.825928,223.779785C122.772224,225.805145,123.917503,227.731445,125.244873,229.530273C126.817917,231.714233,128.431107,233.868835,130.08374,235.993164L131.855957,238.293457C133.939026,240.939636,135.859787,243.709625,137.607666,246.588135C138.47139,248.006073,139.222031,249.48999,139.852539,251.025879C139.907501,251.124359,139.931992,251.236969,139.922607,251.349365L139.906494,251.349854C139.701935,251.129578,139.530731,250.880646,139.398682,250.610596C139.094849,250.069366,138.793945,249.528595,138.494141,248.984863L137.998779,248.137207C136.37088,245.498962,134.563889,242.975433,132.590576,240.584473C130.510559,238.043152,128.367004,235.555115,126.161377,233.12207L125.469727,232.333008C121.017632,227.151825,117.921799,220.946411,116.459961,214.273438C115.571442,210.233673,115.458267,206.061737,116.126465,201.979736C116.811188,197.773499,118.267685,193.730316,120.422607,190.053711L120.551758,189.837646C120.721046,189.569534,120.870857,189.289597,121,189L120.998047,188.978271L120.973389,188.988525C120.72187,189.25322,120.501221,189.545624,120.315674,189.860107C119.381721,191.252869,118.520691,192.693237,117.736084,194.175293C115.906982,197.894501,114.861122,201.949646,114.66333,206.0896C114.552567,208.495544,114.68795,210.906464,115.067383,213.284912C115.319763,215.018768,115.683884,216.734497,116.157471,218.421387L116.185547,218.570068C116.212601,218.64267,116.214058,218.722687,116.189453,218.796143L116.165771,218.799072C116.001831,218.581818,115.878197,218.336853,115.800781,218.075928C112.997421,210.596924,112.900345,202.373413,115.526367,194.830322C117.037094,190.536011,119.379143,186.581482,122.418701,183.192627C126.501976,178.74794,131.853012,175.666,137.746582,174.364502C140.144058,173.827194,142.59819,173.584747,145.054443,173.642578z"/>
    <path transform="matrix(1,0,0,-1,0,0)" style="stroke:none;fill:#fff;fill-rule:evenodd" d="M146.771286,213.825668C146.733368,213.764084,146.674515,213.542191,146.640503,213.332581C146.527527,212.63623,146.889145,211.921143,147.43956,211.752487C148.088882,211.553528,148.713806,212.26535,148.461548,212.916565C148.359146,213.180939,148.217072,213.251328,147.847672,213.220718C147.461792,213.188736,147.266006,213.289856,147.035858,213.640015C146.860336,213.907043,146.83313,213.926132,146.771286,213.825668z"/>
    <path transform="matrix(1,0,0,-1,0,0)" style="stroke:none;fill:#fff;fill-rule:evenodd" d="M140.007233,220.691376C139.495255,220.635284,139.36377,220.574738,139.646805,220.525406C139.844269,220.490997,139.876984,220.458298,139.913971,220.258362C139.970032,219.955383,140.318085,219.406723,140.543015,219.266739C140.782532,219.117676,141.239746,219.099701,141.50412,219.228973C141.78598,219.366791,141.840042,219.350311,142.027481,219.069519C142.177444,218.844849,142.185394,218.840729,142.166168,218.99765C142.095978,219.570648,141.809738,220.117523,141.431946,220.400452C141.175934,220.592178,140.45166,220.740082,140.007233,220.691376zM141.358856,219.925171C141.356964,219.819016,141.3237,219.789337,141.22493,219.805679C141.139847,219.819763,141.100327,219.868439,141.112808,219.943817C141.15274,220.185181,141.36322,220.16922,141.358856,219.925171zM140.685944,219.510483C140.850708,219.436096,141.006332,219.407974,141.156738,219.425385C141.450409,219.459412,141.47934,219.408539,141.215027,219.322922C140.834473,219.199646,140.394455,219.386246,140.285034,219.717285C140.236237,219.864929,140.238556,219.866241,140.336884,219.746719C140.393509,219.677902,140.550583,219.571594,140.685944,219.510483z"/>
    <path transform="matrix(1,0,0,-1,0,0)" style="stroke:none;fill:#fff;fill-rule:evenodd" d="M136.596603,221.820648C136.551071,221.545502,136.378433,221.269852,136.239029,221.249741C136.170425,221.239838,136.037064,221.289398,135.942642,221.359879C135.518173,221.676743,134.835175,221.932266,134.060425,222.064041C132.932068,222.255981,132.155716,222.132385,131.123245,221.596436C130.673401,221.362946,129.729156,220.620636,129.507324,220.326096C129.412735,220.200516,129.419281,220.193863,129.680908,220.149475C130.317444,220.041489,130.778946,219.794495,131.346405,219.258102C132.292648,218.363678,132.951019,218.007355,133.828354,217.914902C134.702103,217.822815,135.402054,218.039734,136.285782,218.676483C136.809189,219.053619,137.09906,219.182556,137.341125,219.145935C137.483505,219.12439,137.484543,219.126862,137.379639,219.237396C137.320343,219.299881,137.141556,219.372391,136.98233,219.398514C136.741455,219.438049,136.576279,219.399658,135.99884,219.169968C135.022324,218.781555,134.661438,218.719467,134.114899,218.845886C133.575607,218.970627,133.125488,219.281799,132.651627,219.857483C132.472412,220.075211,132.32077,220.276581,132.314621,220.304977C132.292862,220.405777,132.758743,220.727112,133.097107,220.844696C133.537979,220.997894,133.892792,220.984802,134.46991,220.794052C135.184128,220.557983,135.979202,220.392273,136.188049,220.435928C136.58725,220.519379,136.818039,221.02269,136.762802,221.689301C136.735352,222.020523,136.641907,222.094376,136.596603,221.820648z"/>
    <path transform="matrix(1,0,0,-1,0,0)" style="stroke:none;fill:#fff;fill-rule:evenodd" d="M130.568054,223.218277C128.032867,221.878372,126.00766,219.529541,125.115692,216.894638C124.894775,216.242065,124.639763,214.784103,124.629944,214.117538C124.606171,212.503052,124.9701,210.653656,125.58284,209.275223C126.987061,206.116241,130.461075,203.648621,134.426361,202.993576C136.942703,202.577881,139.749435,202.747009,144.111694,203.577179C147.909058,204.299835,148.665955,204.437866,149.694,204.595154C153.154144,205.124573,155.85704,205.068481,158.618469,204.409958C161.8237,203.645599,164.198318,202.321518,166.031036,200.276718C166.550842,199.696777,167.455322,198.366684,167.792587,197.686264C167.95163,197.365417,168.091446,197.109833,168.103302,197.118332C168.138367,197.143433,167.999268,198.137131,167.859085,198.863052C167.142456,202.574112,165.34552,205.282562,162.611588,206.77243C161.512863,207.371185,160.687805,207.654022,159.203949,207.940628C157.276917,208.31282,155.490036,208.405914,153.266632,208.249939C150.655655,208.066757,148.599091,207.717712,143.170746,206.536423C140.203903,205.890793,138.609894,205.599762,137.545517,205.509384C133.265015,205.14592,129.752853,206.45755,127.636063,209.210114C126.459183,210.740448,125.75592,212.584503,125.668037,214.370529C125.62767,215.190918,125.910332,216.797241,126.24572,217.653427C127.075706,219.772217,128.505432,221.601456,130.40831,222.979156C130.803146,223.265015,131.120758,223.499268,131.114105,223.49971C131.107452,223.500137,130.861725,223.373505,130.568054,223.218277z"/>
    <path transform="matrix(1,0,0,-1,0,0)" style="stroke:none;fill:#fff;fill-rule:evenodd" d="M145.233398,229.649139C145.208252,229.620331,145.250488,229.444565,145.327271,229.25856C145.562286,228.689056,145.586853,227.944397,145.40155,227.006897C145.254044,226.260651,145.225159,226.181229,144.973282,225.829529C144.648071,225.375397,143.911133,224.845398,143.260208,224.597504C142.818115,224.429138,142.815109,224.429016,142.701797,224.573441C142.427475,224.923096,141.631393,225.36293,140.901566,225.568054C140.660004,225.635956,140.713623,225.599609,141.141251,225.405609C141.881607,225.069717,142.238358,224.794952,142.674133,224.224976C143.31749,223.383484,143.789017,223.044159,144.774155,222.713745C145.245239,222.555756,145.396378,222.472397,145.64325,222.234375C145.985474,221.904449,146.159332,221.445358,146.142487,220.916077L146.132172,220.591644L145.863678,220.938934C145.632324,221.238205,145.307709,221.543427,145.202209,221.560883C145.184509,221.563812,145.286133,221.414993,145.428024,221.230179C145.733215,220.832703,145.929688,220.191635,145.959793,219.495117C145.986145,218.885773,146.046021,218.64032,146.31337,218.04599C146.704788,217.175827,147.367249,216.457535,148.674667,215.485672C149.081711,215.18309,149.501251,214.843643,149.606949,214.731354C149.712662,214.619064,149.831909,214.540634,149.871933,214.557068C149.979874,214.601379,149.8013,214.314667,149.598358,214.117844C149.448776,213.972748,149.435532,213.931747,149.478546,213.746948C149.524597,213.549072,149.755417,213.224426,149.984634,213.035126C150.085632,212.951721,150.079422,212.933411,149.858841,212.664581C149.567535,212.30957,147.71994,210.979965,147.298431,210.822021C146.121765,210.381119,145.298004,210.7314,142.250336,212.968552C141.658447,213.40303,141.123947,214.070969,140.829041,214.74469C140.729065,214.973068,140.639984,215.115967,140.631104,215.06221C140.595673,214.848099,140.967239,213.853897,141.242828,213.425369C141.437103,213.123306,141.505127,212.965454,141.445557,212.954819C140.989532,212.873413,139.04509,213.138229,138.223511,213.393646C137.206757,213.709732,136.552002,214.537552,136.328842,215.789124L136.250946,216.225983L136.239807,215.904266C136.224564,215.464279,136.3358,214.941025,136.534744,214.516846C136.626266,214.321716,136.670364,214.16716,136.632751,214.173386C136.595139,214.179611,136.378143,214.444778,136.150528,214.762665C135.687775,215.408951,135.445389,216.076248,135.409088,216.803955L135.388489,217.216675L135.282379,216.606812C135.030075,215.156708,135.287079,213.528091,135.97496,212.218033C136.346542,211.510345,136.728989,211.014496,137.342194,210.445404C137.983658,209.850098,138.439804,209.531082,139.267883,209.098633C140.057068,208.686493,140.347275,208.585312,139.747009,208.931595C138.049026,209.911133,136.777451,211.399338,136.27684,212.992966C136.136047,213.441193,135.989075,214.279907,136.053192,214.269287C136.077927,214.265198,136.195786,214.1689,136.315109,214.055298C137.149353,213.261047,138.559616,212.730698,140.712616,212.40155C141.560577,212.271927,141.775314,212.217056,142.245834,212.009735C142.899628,211.72168,143.421738,211.413605,144.206833,210.852631C145.293304,210.076309,145.559647,209.937012,146.160919,209.830643C146.664352,209.741577,146.73941,209.745895,147.218567,209.891495C147.590683,210.004547,147.8564,210.142242,148.172668,210.385864C148.413742,210.571594,148.900833,210.940292,149.255066,211.205215C150.366013,212.036072,150.691559,212.432846,150.86853,213.171692C150.969025,213.591293,150.966995,213.662399,150.842712,214.073639C150.645966,214.724716,150.165909,215.270721,149.125427,216.02681C148.087402,216.781128,147.603073,217.229004,147.186859,217.819443C146.868835,218.270569,146.606445,218.892044,146.546692,219.335632C146.530853,219.453217,146.556458,219.926056,146.603622,220.386414C146.675934,221.092285,146.672195,221.283569,146.579773,221.607574C146.40213,222.230301,145.883606,222.776077,145.297089,222.957642C145.143402,223.005219,145.020828,223.063232,145.024689,223.086548C145.028549,223.109879,145.149994,223.210541,145.294556,223.310242C146.53801,224.167816,147.049423,226.143341,146.508026,227.997604C146.359528,228.506195,146.239807,228.757568,145.960114,229.148209C145.70578,229.503418,145.55545,229.655792,145.440674,229.674789C145.351822,229.689484,145.258545,229.677948,145.233398,229.649139z"/>
    <path transform="matrix(1,0,0,-1,0,0)" style="stroke:none;fill:#fff;fill-rule:evenodd" d="M134.104507,233.715424C134.082245,233.689926,134.137863,233.438568,134.228088,233.15686C134.523239,232.235291,134.507919,232.071289,133.928497,229.949234C133.6073,228.772903,133.382278,227.240189,133.4198,226.484253C133.480194,225.267746,134.22139,223.882645,135.165298,223.222427C135.695267,222.851746,136.111725,222.673874,136.663467,222.582581C137.028351,222.522186,137.058884,222.529526,137.406097,222.761017C137.926651,223.108063,138.259766,223.591217,138.346207,224.124573C138.418381,224.569931,138.346802,224.992172,138.161804,225.212372C138.105133,225.279846,137.813736,225.450775,137.514267,225.592209C136.793488,225.932632,136.569916,226.079254,136.335861,226.365021C135.941742,226.846191,135.802643,227.687134,135.799179,229.609787C135.795898,231.429306,135.649643,232.162781,135.134247,232.944504C134.754639,233.520233,134.258408,233.891754,134.104507,233.715424z"/>
</svg>